# xmcd
#
# Track frame offsets:
#	150
#	42688
#	66235
#	89220
#	126119
#	155573
#	194991
#	211898
#	244253
#	281996
#
# Disc length: 4152 seconds
#
# Revision: 1
# Processed by: cddbd v1.5.1PL0 Copyright (c) Steve Scherf et al.
# Submitted via: CDex 1.50Beta5
#
DISCID=ab10360a
DTITLE=英絶 - Don't ever study English
DYEAR=1900
DGENRE=Other
TTITLE0=Hillary Clinton
TTITLE1=Franklin Roosevelt
TTITLE2=Unit 3
TTITLE3=Unit 4
TTITLE4=Unit 5
TTITLE5=Unit 6
TTITLE6=Unit 7
TTITLE7=Unit 8
TTITLE8=Unit 9
TTITLE9=Unit 10
EXTD=
EXTT0=
EXTT1=
EXTT2=
EXTT3=
EXTT4=
EXTT5=
EXTT6=
EXTT7=
EXTT8=
EXTT9=
PLAYORDER=
